<svg xmlns="http://www.w3.org/2000/svg" width="49" height="49" fill="none" viewBox="0 0 49 49">
  <rect width="48" height="48" x=".5" y=".5" fill="url(#a)" rx="18"/>
  <g filter="url(#b)">
    <path fill="#fff" fill-rule="evenodd" d="M17 15.5a3 3 0 0 1 3-3h15a3 3 0 1 1 0 6H20a3 3 0 0 1-3-3Zm-1.5 18a3 3 0 0 1 3-3h15a3 3 0 1 1 0 6h-15a3 3 0 0 1-3-3Zm-3-12a3 3 0 1 0 0 6h15a3 3 0 1 0 0-6h-15Z" clip-rule="evenodd"/>
  </g>
  <defs>
    <linearGradient id="a" x1="48.5" x2=".5" y1="26.214" y2="26.214" gradientUnits="userSpaceOnUse">
      <stop stop-color="#CA21F5"/>
      <stop offset="1" stop-color="#1392ED"/>
    </linearGradient>
    <filter id="b" width="40.5" height="36" x="3.5" y="8" color-interpolation-filters="sRGB" filterUnits="userSpaceOnUse">
      <feFlood flood-opacity="0" result="BackgroundImageFix"/>
      <feColorMatrix in="SourceAlpha" result="hardAlpha" values="0 0 0 0 0 0 0 0 0 0 0 0 0 0 0 0 0 0 127 0"/>
      <feOffset dy="1.5"/>
      <feGaussianBlur stdDeviation="3"/>
      <feComposite in2="hardAlpha" operator="out"/>
      <feColorMatrix values="0 0 0 0 0 0 0 0 0 0 0 0 0 0 0 0 0 0 0.08 0"/>
      <feBlend in2="BackgroundImageFix" result="effect1_dropShadow_5_569"/>
      <feBlend in="SourceGraphic" in2="effect1_dropShadow_5_569" result="shape"/>
      <feColorMatrix in="SourceAlpha" result="hardAlpha" values="0 0 0 0 0 0 0 0 0 0 0 0 0 0 0 0 0 0 127 0"/>
      <feOffset dx="-1.5" dy="-1.5"/>
      <feGaussianBlur stdDeviation="1.5"/>
      <feComposite in2="hardAlpha" k2="-1" k3="1" operator="arithmetic"/>
      <feColorMatrix values="0 0 0 0 0.38 0 0 0 0 0 0 0 0 0 1 0 0 0 0.4 0"/>
      <feBlend in2="shape" result="effect2_innerShadow_5_569"/>
    </filter>
  </defs>
</svg>
